<?xml version="1.0" encoding="UTF-8" standalone="no"?>
<svg
   xmlns:dc="http://purl.org/dc/elements/1.1/"
   xmlns:cc="http://creativecommons.org/ns#"
   xmlns:rdf="http://www.w3.org/1999/02/22-rdf-syntax-ns#"
   xmlns:svg="http://www.w3.org/2000/svg"
   xmlns="http://www.w3.org/2000/svg"
   xmlns:sodipodi="http://sodipodi.sourceforge.net/DTD/sodipodi-0.dtd"
   xmlns:inkscape="http://www.inkscape.org/namespaces/inkscape"
   version="1.1"
   id="Capa_1"
   x="0px"
   y="0px"
   viewBox="0 0 487.95 487.95"
   style="enable-background:new 0 0 487.95 487.95;"
   xml:space="preserve"
   sodipodi:docname="searchIcon.svg"
   inkscape:version="1.0.1 (3bc2e813f5, 2020-09-07)"><metadata
   id="metadata43"><rdf:RDF><cc:Work
       rdf:about=""><dc:format>image/svg+xml</dc:format><dc:type
         rdf:resource="http://purl.org/dc/dcmitype/StillImage" /></cc:Work></rdf:RDF></metadata><defs
   id="defs41" /><sodipodi:namedview
   pagecolor="#ffffff"
   bordercolor="#666666"
   borderopacity="1"
   objecttolerance="10"
   gridtolerance="10"
   guidetolerance="10"
   inkscape:pageopacity="0"
   inkscape:pageshadow="2"
   inkscape:window-width="1920"
   inkscape:window-height="1001"
   id="namedview39"
   showgrid="false"
   inkscape:zoom="1.7009939"
   inkscape:cx="243.97501"
   inkscape:cy="243.97501"
   inkscape:window-x="-9"
   inkscape:window-y="-9"
   inkscape:window-maximized="1"
   inkscape:current-layer="Capa_1" />
<g
   id="g6"
   style="fill:#999999">
	<g
   id="g4"
   style="fill:#999999">
		<path
   d="M481.8,453l-140-140.1c27.6-33.1,44.2-75.4,44.2-121.6C386,85.9,299.5,0.2,193.1,0.2S0,86,0,191.4s86.5,191.1,192.9,191.1    c45.2,0,86.8-15.5,119.8-41.4l140.5,140.5c8.2,8.2,20.4,8.2,28.6,0C490,473.4,490,461.2,481.8,453z M41,191.4    c0-82.8,68.2-150.1,151.9-150.1s151.9,67.3,151.9,150.1s-68.2,150.1-151.9,150.1S41,274.1,41,191.4z"
   id="path2"
   style="fill:#999999" />
	</g>
</g>
<g
   id="g8">
</g>
<g
   id="g10">
</g>
<g
   id="g12">
</g>
<g
   id="g14">
</g>
<g
   id="g16">
</g>
<g
   id="g18">
</g>
<g
   id="g20">
</g>
<g
   id="g22">
</g>
<g
   id="g24">
</g>
<g
   id="g26">
</g>
<g
   id="g28">
</g>
<g
   id="g30">
</g>
<g
   id="g32">
</g>
<g
   id="g34">
</g>
<g
   id="g36">
</g>
</svg>
